<svg height="4702" width="720" xmlns="http://www.w3.org/2000/svg">
<rect height="4702" fill="#555" width="720"></rect>
<text fill="#7f7" font-family="Courier New" font-size="12" xml:space="preserve">
<tspan x="10" y="26">51 megabytes installed</tspan>
<tspan x="10" y="42"></tspan>
<tspan x="10" y="58">node_modules</tspan>
<tspan x="10" y="74">└─┬ gulp-pleeease@2.0.2 </tspan>
<tspan x="10" y="90">  ├─┬ gulp-util@3.0.8 </tspan>
<tspan x="10" y="106">  │ ├── array-differ@1.0.0 </tspan>
<tspan x="10" y="122">  │ ├── array-uniq@1.0.3 </tspan>
<tspan x="10" y="138">  │ ├── beeper@1.1.1 </tspan>
<tspan x="10" y="154">  │ ├─┬ chalk@1.1.3 </tspan>
<tspan x="10" y="170">  │ │ ├── ansi-styles@2.2.1 </tspan>
<tspan x="10" y="186">  │ │ ├── escape-string-regexp@1.0.5 </tspan>
<tspan x="10" y="202">  │ │ ├─┬ has-ansi@2.0.0 </tspan>
<tspan x="10" y="218">  │ │ │ └── ansi-regex@2.1.1 </tspan>
<tspan x="10" y="234">  │ │ ├── strip-ansi@3.0.1 </tspan>
<tspan x="10" y="250">  │ │ └── supports-color@2.0.0 </tspan>
<tspan x="10" y="266">  │ ├── dateformat@2.0.0 </tspan>
<tspan x="10" y="282">  │ ├─┬ fancy-log@1.3.0 </tspan>
<tspan x="10" y="298">  │ │ └── time-stamp@1.0.1 </tspan>
<tspan x="10" y="314">  │ ├─┬ gulplog@1.0.0 </tspan>
<tspan x="10" y="330">  │ │ └── glogg@1.0.0 </tspan>
<tspan x="10" y="346">  │ ├─┬ has-gulplog@0.1.0 </tspan>
<tspan x="10" y="362">  │ │ └── sparkles@1.0.0 </tspan>
<tspan x="10" y="378">  │ ├── lodash._reescape@3.0.0 </tspan>
<tspan x="10" y="394">  │ ├── lodash._reevaluate@3.0.0 </tspan>
<tspan x="10" y="410">  │ ├── lodash._reinterpolate@3.0.0 </tspan>
<tspan x="10" y="426">  │ ├─┬ lodash.template@3.6.2 </tspan>
<tspan x="10" y="442">  │ │ ├── lodash._basecopy@3.0.1 </tspan>
<tspan x="10" y="458">  │ │ ├── lodash._basetostring@3.0.1 </tspan>
<tspan x="10" y="474">  │ │ ├── lodash._basevalues@3.0.0 </tspan>
<tspan x="10" y="490">  │ │ ├── lodash._isiterateecall@3.0.9 </tspan>
<tspan x="10" y="506">  │ │ ├─┬ lodash.escape@3.2.0 </tspan>
<tspan x="10" y="522">  │ │ │ └── lodash._root@3.0.1 </tspan>
<tspan x="10" y="538">  │ │ ├─┬ lodash.keys@3.1.2 </tspan>
<tspan x="10" y="554">  │ │ │ ├── lodash._getnative@3.9.1 </tspan>
<tspan x="10" y="570">  │ │ │ ├── lodash.isarguments@3.1.0 </tspan>
<tspan x="10" y="586">  │ │ │ └── lodash.isarray@3.0.4 </tspan>
<tspan x="10" y="602">  │ │ ├── lodash.restparam@3.6.1 </tspan>
<tspan x="10" y="618">  │ │ └── lodash.templatesettings@3.1.1 </tspan>
<tspan x="10" y="634">  │ ├── minimist@1.2.0 </tspan>
<tspan x="10" y="650">  │ ├─┬ multipipe@0.1.2 </tspan>
<tspan x="10" y="666">  │ │ └─┬ duplexer2@0.0.2 </tspan>
<tspan x="10" y="682">  │ │   └─┬ readable-stream@1.1.14 </tspan>
<tspan x="10" y="698">  │ │     ├── isarray@0.0.1 </tspan>
<tspan x="10" y="714">  │ │     └── string_decoder@0.10.31 </tspan>
<tspan x="10" y="730">  │ ├── object-assign@3.0.0 </tspan>
<tspan x="10" y="746">  │ ├── replace-ext@0.0.1 </tspan>
<tspan x="10" y="762">  │ └─┬ vinyl@0.5.3 </tspan>
<tspan x="10" y="778">  │   ├── clone@1.0.2 </tspan>
<tspan x="10" y="794">  │   └── clone-stats@0.0.1 </tspan>
<tspan x="10" y="810">  ├─┬ pleeease@4.2.1 </tspan>
<tspan x="10" y="826">  │ ├─┬ autoprefixer@6.7.7 </tspan>
<tspan x="10" y="842">  │ │ ├─┬ browserslist@1.7.7 </tspan>
<tspan x="10" y="858">  │ │ │ └── electron-to-chromium@1.3.4 </tspan>
<tspan x="10" y="874">  │ │ ├── normalize-range@0.1.2 </tspan>
<tspan x="10" y="890">  │ │ ├── num2fraction@1.2.2 </tspan>
<tspan x="10" y="906">  │ │ └── postcss-value-parser@3.3.0 </tspan>
<tspan x="10" y="922">  │ ├── browserslist@1.3.6 </tspan>
<tspan x="10" y="938">  │ ├── caniuse-db@1.0.30000655 </tspan>
<tspan x="10" y="954">  │ ├── commondir@1.0.1 </tspan>
<tspan x="10" y="970">  │ ├─┬ css-mqpacker@4.0.1 </tspan>
<tspan x="10" y="986">  │ │ └─┬ fs-extra@0.26.7 </tspan>
<tspan x="10" y="1002">  │ │   ├── jsonfile@2.4.0 </tspan>
<tspan x="10" y="1018">  │ │   ├── klaw@1.3.1 </tspan>
<tspan x="10" y="1034">  │ │   └── rimraf@2.6.1 </tspan>
<tspan x="10" y="1050">  │ ├─┬ csswring@4.2.3 </tspan>
<tspan x="10" y="1066">  │ │ ├── fs-extra@0.30.0 </tspan>
<tspan x="10" y="1082">  │ │ └── onecolor@2.5.0 </tspan>
<tspan x="10" y="1098">  │ ├── deep-extend@0.3.3 </tspan>
<tspan x="10" y="1114">  │ ├── es6-promise@3.3.1 </tspan>
<tspan x="10" y="1130">  │ ├─┬ less@2.7.2 </tspan>
<tspan x="10" y="1146">  │ │ ├─┬ errno@0.1.4 </tspan>
<tspan x="10" y="1162">  │ │ │ └── prr@0.0.0 </tspan>
<tspan x="10" y="1178">  │ │ ├── graceful-fs@4.1.11 </tspan>
<tspan x="10" y="1194">  │ │ ├── image-size@0.5.1 </tspan>
<tspan x="10" y="1210">  │ │ ├── mime@1.3.4 </tspan>
<tspan x="10" y="1226">  │ │ ├─┬ mkdirp@0.5.1 </tspan>
<tspan x="10" y="1242">  │ │ │ └── minimist@0.0.8 </tspan>
<tspan x="10" y="1258">  │ │ ├─┬ promise@7.1.1 </tspan>
<tspan x="10" y="1274">  │ │ │ └── asap@2.0.5 </tspan>
<tspan x="10" y="1290">  │ │ ├─┬ request@2.81.0 </tspan>
<tspan x="10" y="1306">  │ │ │ ├── aws-sign2@0.6.0 </tspan>
<tspan x="10" y="1322">  │ │ │ ├── aws4@1.6.0 </tspan>
<tspan x="10" y="1338">  │ │ │ ├── caseless@0.12.0 </tspan>
<tspan x="10" y="1354">  │ │ │ ├─┬ combined-stream@1.0.5 </tspan>
<tspan x="10" y="1370">  │ │ │ │ └── delayed-stream@1.0.0 </tspan>
<tspan x="10" y="1386">  │ │ │ ├── extend@3.0.0 </tspan>
<tspan x="10" y="1402">  │ │ │ ├── forever-agent@0.6.1 </tspan>
<tspan x="10" y="1418">  │ │ │ ├─┬ form-data@2.1.4 </tspan>
<tspan x="10" y="1434">  │ │ │ │ └── asynckit@0.4.0 </tspan>
<tspan x="10" y="1450">  │ │ │ ├─┬ har-validator@4.2.1 </tspan>
<tspan x="10" y="1466">  │ │ │ │ ├─┬ ajv@4.11.7 </tspan>
<tspan x="10" y="1482">  │ │ │ │ │ ├── co@4.6.0 </tspan>
<tspan x="10" y="1498">  │ │ │ │ │ └─┬ json-stable-stringify@1.0.1 </tspan>
<tspan x="10" y="1514">  │ │ │ │ │   └── jsonify@0.0.0 </tspan>
<tspan x="10" y="1530">  │ │ │ │ └── har-schema@1.0.5 </tspan>
<tspan x="10" y="1546">  │ │ │ ├─┬ hawk@3.1.3 </tspan>
<tspan x="10" y="1562">  │ │ │ │ ├── boom@2.10.1 </tspan>
<tspan x="10" y="1578">  │ │ │ │ ├── cryptiles@2.0.5 </tspan>
<tspan x="10" y="1594">  │ │ │ │ ├── hoek@2.16.3 </tspan>
<tspan x="10" y="1610">  │ │ │ │ └── sntp@1.0.9 </tspan>
<tspan x="10" y="1626">  │ │ │ ├─┬ http-signature@1.1.1 </tspan>
<tspan x="10" y="1642">  │ │ │ │ ├── assert-plus@0.2.0 </tspan>
<tspan x="10" y="1658">  │ │ │ │ ├─┬ jsprim@1.4.0 </tspan>
<tspan x="10" y="1674">  │ │ │ │ │ ├── assert-plus@1.0.0 </tspan>
<tspan x="10" y="1690">  │ │ │ │ │ ├── extsprintf@1.0.2 </tspan>
<tspan x="10" y="1706">  │ │ │ │ │ ├── json-schema@0.2.3 </tspan>
<tspan x="10" y="1722">  │ │ │ │ │ └── verror@1.3.6 </tspan>
<tspan x="10" y="1738">  │ │ │ │ └─┬ sshpk@1.13.0 </tspan>
<tspan x="10" y="1754">  │ │ │ │   ├── asn1@0.2.3 </tspan>
<tspan x="10" y="1770">  │ │ │ │   ├── assert-plus@1.0.0 </tspan>
<tspan x="10" y="1786">  │ │ │ │   ├── bcrypt-pbkdf@1.0.1 </tspan>
<tspan x="10" y="1802">  │ │ │ │   ├─┬ dashdash@1.14.1 </tspan>
<tspan x="10" y="1818">  │ │ │ │   │ └── assert-plus@1.0.0 </tspan>
<tspan x="10" y="1834">  │ │ │ │   ├── ecc-jsbn@0.1.1 </tspan>
<tspan x="10" y="1850">  │ │ │ │   ├─┬ getpass@0.1.6 </tspan>
<tspan x="10" y="1866">  │ │ │ │   │ └── assert-plus@1.0.0 </tspan>
<tspan x="10" y="1882">  │ │ │ │   ├── jodid25519@1.0.2 </tspan>
<tspan x="10" y="1898">  │ │ │ │   ├── jsbn@0.1.1 </tspan>
<tspan x="10" y="1914">  │ │ │ │   └── tweetnacl@0.14.5 </tspan>
<tspan x="10" y="1930">  │ │ │ ├── is-typedarray@1.0.0 </tspan>
<tspan x="10" y="1946">  │ │ │ ├── isstream@0.1.2 </tspan>
<tspan x="10" y="1962">  │ │ │ ├── json-stringify-safe@5.0.1 </tspan>
<tspan x="10" y="1978">  │ │ │ ├─┬ mime-types@2.1.15 </tspan>
<tspan x="10" y="1994">  │ │ │ │ └── mime-db@1.27.0 </tspan>
<tspan x="10" y="2010">  │ │ │ ├── oauth-sign@0.8.2 </tspan>
<tspan x="10" y="2026">  │ │ │ ├── performance-now@0.2.0 </tspan>
<tspan x="10" y="2042">  │ │ │ ├── qs@6.4.0 </tspan>
<tspan x="10" y="2058">  │ │ │ ├── safe-buffer@5.0.1 </tspan>
<tspan x="10" y="2074">  │ │ │ ├── stringstream@0.0.5 </tspan>
<tspan x="10" y="2090">  │ │ │ ├─┬ tough-cookie@2.3.2 </tspan>
<tspan x="10" y="2106">  │ │ │ │ └── punycode@1.4.1 </tspan>
<tspan x="10" y="2122">  │ │ │ ├── tunnel-agent@0.6.0 </tspan>
<tspan x="10" y="2138">  │ │ │ └── uuid@3.0.1 </tspan>
<tspan x="10" y="2154">  │ │ └── source-map@0.5.6 </tspan>
<tspan x="10" y="2170">  │ ├─┬ node-sass@4.5.2 </tspan>
<tspan x="10" y="2186">  │ │ ├── async-foreach@0.1.3 </tspan>
<tspan x="10" y="2202">  │ │ ├─┬ cross-spawn@3.0.1 </tspan>
<tspan x="10" y="2218">  │ │ │ ├─┬ lru-cache@4.0.2 </tspan>
<tspan x="10" y="2234">  │ │ │ │ ├── pseudomap@1.0.2 </tspan>
<tspan x="10" y="2250">  │ │ │ │ └── yallist@2.1.2 </tspan>
<tspan x="10" y="2266">  │ │ │ └─┬ which@1.2.14 </tspan>
<tspan x="10" y="2282">  │ │ │   └── isexe@2.0.0 </tspan>
<tspan x="10" y="2298">  │ │ ├─┬ gaze@1.1.2 </tspan>
<tspan x="10" y="2314">  │ │ │ └── globule@1.1.0 </tspan>
<tspan x="10" y="2330">  │ │ ├── get-stdin@4.0.1 </tspan>
<tspan x="10" y="2346">  │ │ ├─┬ glob@7.1.1 </tspan>
<tspan x="10" y="2362">  │ │ │ ├── fs.realpath@1.0.0 </tspan>
<tspan x="10" y="2378">  │ │ │ ├─┬ inflight@1.0.6 </tspan>
<tspan x="10" y="2394">  │ │ │ │ └── wrappy@1.0.2 </tspan>
<tspan x="10" y="2410">  │ │ │ └── once@1.4.0 </tspan>
<tspan x="10" y="2426">  │ │ ├── in-publish@2.0.0 </tspan>
<tspan x="10" y="2442">  │ │ ├── lodash.assign@4.2.0 </tspan>
<tspan x="10" y="2458">  │ │ ├── lodash.clonedeep@4.5.0 </tspan>
<tspan x="10" y="2474">  │ │ ├── lodash.mergewith@4.6.0 </tspan>
<tspan x="10" y="2490">  │ │ ├─┬ meow@3.7.0 </tspan>
<tspan x="10" y="2506">  │ │ │ ├─┬ camelcase-keys@2.1.0 </tspan>
<tspan x="10" y="2522">  │ │ │ │ └── camelcase@2.1.1 </tspan>
<tspan x="10" y="2538">  │ │ │ ├── decamelize@1.2.0 </tspan>
<tspan x="10" y="2554">  │ │ │ ├─┬ loud-rejection@1.6.0 </tspan>
<tspan x="10" y="2570">  │ │ │ │ ├─┬ currently-unhandled@0.4.1 </tspan>
<tspan x="10" y="2586">  │ │ │ │ │ └── array-find-index@1.0.2 </tspan>
<tspan x="10" y="2602">  │ │ │ │ └── signal-exit@3.0.2 </tspan>
<tspan x="10" y="2618">  │ │ │ ├── map-obj@1.0.1 </tspan>
<tspan x="10" y="2634">  │ │ │ ├─┬ normalize-package-data@2.3.6 </tspan>
<tspan x="10" y="2650">  │ │ │ │ ├── hosted-git-info@2.4.2 </tspan>
<tspan x="10" y="2666">  │ │ │ │ ├─┬ is-builtin-module@1.0.0 </tspan>
<tspan x="10" y="2682">  │ │ │ │ │ └── builtin-modules@1.1.1 </tspan>
<tspan x="10" y="2698">  │ │ │ │ └─┬ validate-npm-package-license@3.0.1 </tspan>
<tspan x="10" y="2714">  │ │ │ │   ├─┬ spdx-correct@1.0.2 </tspan>
<tspan x="10" y="2730">  │ │ │ │   │ └── spdx-license-ids@1.2.2 </tspan>
<tspan x="10" y="2746">  │ │ │ │   └── spdx-expression-parse@1.0.4 </tspan>
<tspan x="10" y="2762">  │ │ │ ├── object-assign@4.1.1 </tspan>
<tspan x="10" y="2778">  │ │ │ ├─┬ read-pkg-up@1.0.1 </tspan>
<tspan x="10" y="2794">  │ │ │ │ ├─┬ find-up@1.1.2 </tspan>
<tspan x="10" y="2810">  │ │ │ │ │ ├── path-exists@2.1.0 </tspan>
<tspan x="10" y="2826">  │ │ │ │ │ └─┬ pinkie-promise@2.0.1 </tspan>
<tspan x="10" y="2842">  │ │ │ │ │   └── pinkie@2.0.4 </tspan>
<tspan x="10" y="2858">  │ │ │ │ └─┬ read-pkg@1.1.0 </tspan>
<tspan x="10" y="2874">  │ │ │ │   ├─┬ load-json-file@1.1.0 </tspan>
<tspan x="10" y="2890">  │ │ │ │   │ ├─┬ parse-json@2.2.0 </tspan>
<tspan x="10" y="2906">  │ │ │ │   │ │ └─┬ error-ex@1.3.1 </tspan>
<tspan x="10" y="2922">  │ │ │ │   │ │   └── is-arrayish@0.2.1 </tspan>
<tspan x="10" y="2938">  │ │ │ │   │ ├── pify@2.3.0 </tspan>
<tspan x="10" y="2954">  │ │ │ │   │ └─┬ strip-bom@2.0.0 </tspan>
<tspan x="10" y="2970">  │ │ │ │   │   └── is-utf8@0.2.1 </tspan>
<tspan x="10" y="2986">  │ │ │ │   └── path-type@1.1.0 </tspan>
<tspan x="10" y="3002">  │ │ │ ├─┬ redent@1.0.0 </tspan>
<tspan x="10" y="3018">  │ │ │ │ ├─┬ indent-string@2.1.0 </tspan>
<tspan x="10" y="3034">  │ │ │ │ │ └─┬ repeating@2.0.1 </tspan>
<tspan x="10" y="3050">  │ │ │ │ │   └── is-finite@1.0.2 </tspan>
<tspan x="10" y="3066">  │ │ │ │ └── strip-indent@1.0.1 </tspan>
<tspan x="10" y="3082">  │ │ │ └── trim-newlines@1.0.0 </tspan>
<tspan x="10" y="3098">  │ │ ├── nan@2.6.2 </tspan>
<tspan x="10" y="3114">  │ │ ├─┬ node-gyp@3.6.0 </tspan>
<tspan x="10" y="3130">  │ │ │ ├── fstream@1.0.11 </tspan>
<tspan x="10" y="3146">  │ │ │ ├─┬ nopt@3.0.6 </tspan>
<tspan x="10" y="3162">  │ │ │ │ └── abbrev@1.1.0 </tspan>
<tspan x="10" y="3178">  │ │ │ ├─┬ osenv@0.1.4 </tspan>
<tspan x="10" y="3194">  │ │ │ │ ├── os-homedir@1.0.2 </tspan>
<tspan x="10" y="3210">  │ │ │ │ └── os-tmpdir@1.0.2 </tspan>
<tspan x="10" y="3226">  │ │ │ ├── semver@5.3.0 </tspan>
<tspan x="10" y="3242">  │ │ │ └─┬ tar@2.2.1 </tspan>
<tspan x="10" y="3258">  │ │ │   └── block-stream@0.0.9 </tspan>
<tspan x="10" y="3274">  │ │ ├─┬ npmlog@4.0.2 </tspan>
<tspan x="10" y="3290">  │ │ │ ├─┬ are-we-there-yet@1.1.2 </tspan>
<tspan x="10" y="3306">  │ │ │ │ └── delegates@1.0.0 </tspan>
<tspan x="10" y="3322">  │ │ │ ├── console-control-strings@1.1.0 </tspan>
<tspan x="10" y="3338">  │ │ │ ├─┬ gauge@2.7.3 </tspan>
<tspan x="10" y="3354">  │ │ │ │ ├── aproba@1.1.1 </tspan>
<tspan x="10" y="3370">  │ │ │ │ ├── has-unicode@2.0.1 </tspan>
<tspan x="10" y="3386">  │ │ │ │ ├── object-assign@4.1.1 </tspan>
<tspan x="10" y="3402">  │ │ │ │ ├─┬ string-width@1.0.2 </tspan>
<tspan x="10" y="3418">  │ │ │ │ │ ├── code-point-at@1.1.0 </tspan>
<tspan x="10" y="3434">  │ │ │ │ │ └─┬ is-fullwidth-code-point@1.0.0 </tspan>
<tspan x="10" y="3450">  │ │ │ │ │   └── number-is-nan@1.0.1 </tspan>
<tspan x="10" y="3466">  │ │ │ │ └── wide-align@1.1.0 </tspan>
<tspan x="10" y="3482">  │ │ │ └── set-blocking@2.0.0 </tspan>
<tspan x="10" y="3498">  │ │ ├─┬ sass-graph@2.1.2 </tspan>
<tspan x="10" y="3514">  │ │ │ ├── lodash@4.16.6 </tspan>
<tspan x="10" y="3530">  │ │ │ └─┬ yargs@4.8.1 </tspan>
<tspan x="10" y="3546">  │ │ │   ├─┬ cliui@3.2.0 </tspan>
<tspan x="10" y="3562">  │ │ │   │ └── wrap-ansi@2.1.0 </tspan>
<tspan x="10" y="3578">  │ │ │   ├── get-caller-file@1.0.2 </tspan>
<tspan x="10" y="3594">  │ │ │   ├─┬ os-locale@1.4.0 </tspan>
<tspan x="10" y="3610">  │ │ │   │ └─┬ lcid@1.0.0 </tspan>
<tspan x="10" y="3626">  │ │ │   │   └── invert-kv@1.0.0 </tspan>
<tspan x="10" y="3642">  │ │ │   ├── require-directory@2.1.1 </tspan>
<tspan x="10" y="3658">  │ │ │   ├── require-main-filename@1.0.1 </tspan>
<tspan x="10" y="3674">  │ │ │   ├── which-module@1.0.0 </tspan>
<tspan x="10" y="3690">  │ │ │   ├── window-size@0.2.0 </tspan>
<tspan x="10" y="3706">  │ │ │   ├── y18n@3.2.1 </tspan>
<tspan x="10" y="3722">  │ │ │   └─┬ yargs-parser@2.4.1 </tspan>
<tspan x="10" y="3738">  │ │ │     └── camelcase@3.0.0 </tspan>
<tspan x="10" y="3754">  │ │ └─┬ stdout-stream@1.4.0 </tspan>
<tspan x="10" y="3770">  │ │   └─┬ readable-stream@2.2.9 </tspan>
<tspan x="10" y="3786">  │ │     ├── isarray@1.0.0 </tspan>
<tspan x="10" y="3802">  │ │     └── string_decoder@1.0.0 </tspan>
<tspan x="10" y="3818">  │ ├─┬ pixrem@3.0.2 </tspan>
<tspan x="10" y="3834">  │ │ └─┬ reduce-css-calc@1.3.0 </tspan>
<tspan x="10" y="3850">  │ │   ├── balanced-match@0.4.2 </tspan>
<tspan x="10" y="3866">  │ │   ├── math-expression-evaluator@1.2.16 </tspan>
<tspan x="10" y="3882">  │ │   └── reduce-function-call@1.0.2 </tspan>
<tspan x="10" y="3898">  │ ├─┬ pleeease-filters@2.0.0 </tspan>
<tspan x="10" y="3914">  │ │ └── onecolor@2.4.2 </tspan>
<tspan x="10" y="3930">  │ ├─┬ postcss@5.2.17 </tspan>
<tspan x="10" y="3946">  │ │ ├── js-base64@2.1.9 </tspan>
<tspan x="10" y="3962">  │ │ └─┬ supports-color@3.2.3 </tspan>
<tspan x="10" y="3978">  │ │   └── has-flag@1.0.0 </tspan>
<tspan x="10" y="3994">  │ ├─┬ postcss-import@7.1.3 </tspan>
<tspan x="10" y="4010">  │ │ ├── glob@5.0.15 </tspan>
<tspan x="10" y="4026">  │ │ ├── object-assign@4.1.1 </tspan>
<tspan x="10" y="4042">  │ │ ├── postcss-message-helpers@2.0.0 </tspan>
<tspan x="10" y="4058">  │ │ └─┬ resolve@1.3.2 </tspan>
<tspan x="10" y="4074">  │ │   └── path-parse@1.0.5 </tspan>
<tspan x="10" y="4090">  │ ├── postcss-opacity@3.0.0 </tspan>
<tspan x="10" y="4106">  │ ├── postcss-pseudoelements@3.0.0 </tspan>
<tspan x="10" y="4122">  │ ├─┬ postcss-url@5.1.2 </tspan>
<tspan x="10" y="4138">  │ │ ├─┬ directory-encoder@0.7.2 </tspan>
<tspan x="10" y="4154">  │ │ │ ├── fs-extra@0.23.1 </tspan>
<tspan x="10" y="4170">  │ │ │ ├─┬ handlebars@1.3.0 </tspan>
<tspan x="10" y="4186">  │ │ │ │ ├─┬ optimist@0.3.7 </tspan>
<tspan x="10" y="4202">  │ │ │ │ │ └── wordwrap@0.0.3 </tspan>
<tspan x="10" y="4218">  │ │ │ │ └─┬ uglify-js@2.3.6 </tspan>
<tspan x="10" y="4234">  │ │ │ │   ├── async@0.2.10 </tspan>
<tspan x="10" y="4250">  │ │ │ │   └── source-map@0.1.43 </tspan>
<tspan x="10" y="4266">  │ │ │ └─┬ img-stats@0.5.2 </tspan>
<tspan x="10" y="4282">  │ │ │   └── xmldom@0.1.27 </tspan>
<tspan x="10" y="4298">  │ │ ├─┬ minimatch@3.0.3 </tspan>
<tspan x="10" y="4314">  │ │ │ └─┬ brace-expansion@1.1.7 </tspan>
<tspan x="10" y="4330">  │ │ │   └── concat-map@0.0.1 </tspan>
<tspan x="10" y="4346">  │ │ └── path-is-absolute@1.0.1 </tspan>
<tspan x="10" y="4362">  │ ├── postcss-vmin@2.0.0 </tspan>
<tspan x="10" y="4378">  │ └─┬ stylus@0.54.5 </tspan>
<tspan x="10" y="4394">  │   ├── css-parse@1.7.0 </tspan>
<tspan x="10" y="4410">  │   ├─┬ debug@2.6.3 </tspan>
<tspan x="10" y="4426">  │   │ └── ms@0.7.2 </tspan>
<tspan x="10" y="4442">  │   ├── glob@7.0.6 </tspan>
<tspan x="10" y="4458">  │   ├── sax@0.5.8 </tspan>
<tspan x="10" y="4474">  │   └── source-map@0.1.43 </tspan>
<tspan x="10" y="4490">  ├─┬ through2@2.0.3 </tspan>
<tspan x="10" y="4506">  │ ├─┬ readable-stream@2.2.9 </tspan>
<tspan x="10" y="4522">  │ │ ├── buffer-shims@1.0.0 </tspan>
<tspan x="10" y="4538">  │ │ ├── core-util-is@1.0.2 </tspan>
<tspan x="10" y="4554">  │ │ ├── inherits@2.0.3 </tspan>
<tspan x="10" y="4570">  │ │ ├── isarray@1.0.0 </tspan>
<tspan x="10" y="4586">  │ │ ├── process-nextick-args@1.0.7 </tspan>
<tspan x="10" y="4602">  │ │ ├── string_decoder@1.0.0 </tspan>
<tspan x="10" y="4618">  │ │ └── util-deprecate@1.0.2 </tspan>
<tspan x="10" y="4634">  │ └── xtend@4.0.1 </tspan>
<tspan x="10" y="4650">  └─┬ vinyl-sourcemaps-apply@0.1.4 </tspan>
<tspan x="10" y="4666">    └─┬ source-map@0.1.43 </tspan>
<tspan x="10" y="4682">      └── amdefine@1.0.1</tspan>
</text>
</svg>
